<?xml version="1.0" encoding="UTF-8" standalone="no"?>
<!-- Created with Inkscape (http://www.inkscape.org/) -->

<svg
   xmlns:dc="http://purl.org/dc/elements/1.1/"
   xmlns:cc="http://creativecommons.org/ns#"
   xmlns:rdf="http://www.w3.org/1999/02/22-rdf-syntax-ns#"
   xmlns:svg="http://www.w3.org/2000/svg"
   xmlns="http://www.w3.org/2000/svg"
   xmlns:sodipodi="http://sodipodi.sourceforge.net/DTD/sodipodi-0.dtd"
   xmlns:inkscape="http://www.inkscape.org/namespaces/inkscape"
   version="1.1"
   id="svg3690"
   width="533.33331"
   height="533.33331"
   viewBox="0 0 533.33331 533.33331"
   sodipodi:docname="idios-vector-logo.svg"
   inkscape:version="0.92.1 r15371">
  <metadata
     id="metadata3696">
    <rdf:RDF>
      <cc:Work
         rdf:about="">
        <dc:format>image/svg+xml</dc:format>
        <dc:type
           rdf:resource="http://purl.org/dc/dcmitype/StillImage" />
        <dc:title></dc:title>
      </cc:Work>
    </rdf:RDF>
  </metadata>
  <defs
     id="defs3694" />
  <sodipodi:namedview
     pagecolor="#ffffff"
     bordercolor="#666666"
     borderopacity="1"
     objecttolerance="10"
     gridtolerance="10"
     guidetolerance="10"
     inkscape:pageopacity="0"
     inkscape:pageshadow="2"
     inkscape:window-width="1378"
     inkscape:window-height="797"
     id="namedview3692"
     showgrid="false"
     inkscape:zoom="0.35355339"
     inkscape:cx="937.02312"
     inkscape:cy="100.4315"
     inkscape:window-x="520"
     inkscape:window-y="119"
     inkscape:window-maximized="0"
     inkscape:current-layer="svg3690" />
  <path
     inkscape:connector-curvature="0"
     id="path3702"
     d="m 61.259882,405.81133 c -2.36103,-0.99197 -2.072293,-5.05569 0.971603,-13.67445 1.451049,-4.10863 3.859635,-16.92067 5.352412,-28.4712 1.492778,-11.55054 3.913144,-24.2056 5.37859,-28.12235 4.514897,-12.06714 13.872574,-23.45769 37.164233,-45.23781 7.9839,-7.46577 10.71773,-10.81911 9.7831,-12 -0.7134,-0.90137 -2.35203,-4.87113 -3.64139,-8.82167 -7.15869,-21.93383 7.85864,-49.9127 34.01519,-63.37385 l 10.02375,-5.1586 -2.65035,-5.71566 c -2.10947,-4.54924 -3.51813,-5.87847 -6.90265,-6.51341 -4.42532,-0.83019 -13.82783,-9.82591 -13.82783,-13.22959 0,-2.70409 2.69197,-4.46759 8.46747,-5.54699 l 5.13414,-0.95953 -4.09301,-4.09301 c -4.03352,-4.03352 -4.15757,-4.06222 -8.53585,-1.97436 -3.43464,1.63786 -5.87209,4.79973 -10.74096,13.93322 -5.75122,10.7887 -31.565116,44.07295 -31.565116,40.69984 0,-0.75767 1.00418,-5.76681 2.231512,-11.13141 1.635361,-7.1481 2.214534,-15.80927 2.167961,-32.42051 -0.05935,-21.16746 -1.565786,-34.26462 -6.527217,-56.74835 -0.590273,-2.67494 -0.08019,-3.73895 2.353747,-4.90976 2.137028,-1.02799 2.435282,-1.52292 0.955141,-1.58498 -1.310572,-0.055 -3.074582,-2.5669 -4.510938,-6.42357 C 87.1802,90.684684 77.595086,78.022108 63.113653,65.824543 c -5.913626,-4.980987 -6.39931,-5.823059 -5.560726,-9.641107 0.871278,-3.966905 1.243916,-4.183437 7.199431,-4.183437 17.732783,0 33.411471,7.88975 51.621662,25.976796 14.0654,13.970281 23.49549,27.057765 34.91681,48.459045 l 6.6367,12.43585 1.4995,-4.30148 c 0.82474,-2.36581 1.49951,-6.87653 1.49951,-10.02382 0,-3.14729 0.55412,-6.06482 1.23137,-6.48338 3.05138,-1.88585 13.09878,18.03476 14.32706,28.40572 l 0.7905,6.67454 10.15887,2.34186 c 5.58737,1.28801 10.75886,2.1485 11.4922,1.9122 0.73333,-0.23631 4.33333,-0.58328 8,-0.77106 6.4121,-0.32834 7.10114,-0.7691 18.04492,-11.54269 11.30161,-11.12584 26.20052,-21.53944 36.84373,-25.75194 l 5.55532,-2.19876 0.94781,-11.37822 c 0.52128,-6.258019 0.27139,-21.074675 -0.55533,-32.925897 -2.05685,-29.485611 -2.52808,-26.739192 4.01514,-23.401081 17.33951,8.84595 28.28796,29.087006 30.05914,55.572068 l 0.82476,12.33309 12.13225,9.64376 c 6.67275,5.30407 21.75345,18.95418 33.51269,30.33358 19.98996,19.34423 22.54312,21.34017 39.25784,30.68981 19.04896,10.65533 31.37849,20.7148 36.60678,29.86688 3.95999,6.93192 5.72267,15.39692 6.63479,31.86263 0.44692,8.06772 1.44992,14.09976 2.62297,15.77453 1.04464,1.49144 6.81315,6.31841 12.8189,10.72661 14.71562,10.80121 20.19178,16.72707 25.25708,27.3312 5.19753,10.88096 7.55633,19.98804 9.26504,35.77148 0.71452,6.6 2.52877,14.7 4.03169,18 3.24436,7.12374 3.64077,16.30166 0.80575,18.65453 -2.8621,2.37532 -10.06008,0.65523 -16.36234,-3.91011 -5.81717,-4.21393 -17.65228,-18.76945 -17.65228,-21.70981 0,-1.00904 -0.55965,-2.40461 -1.24366,-3.10128 -1.8414,-1.87547 -8.08967,-21.21398 -8.08967,-25.0377 0,-2.46958 -1.25919,-3.94662 -5,-5.86506 -2.75,-1.4103 -7.1,-5.37452 -9.66667,-8.80937 l -4.66666,-6.24517 -2.41375,5.67865 c -3.271,7.69541 -8.12385,12.52135 -17.25289,17.15716 -17.62352,8.94939 -37.98936,9.85223 -75.00002,3.32483 -25.80316,-4.55078 -53.69912,-6.63803 -76,-5.68652 -23.4654,1.0012 -34.84248,2.57138 -60.21582,8.31057 -21.20915,4.79729 -32.03508,5.60317 -40.63959,3.0252 -7.69004,-2.30399 -15.24668,-9.43871 -18.10098,-17.09031 l -2.44963,-6.56678 -13.92219,13.80288 c -13.7108,13.59329 -13.94593,13.93144 -15.48523,22.26891 -2.181544,11.81614 -8.25397,31.31948 -11.976509,38.46604 -6.965438,13.3723 -21.517139,24.62334 -28.210039,21.81135 z m 13.456685,-12.42681 c 3.15174,-2.90518 7.301311,-8.16835 9.221266,-11.69594 4.140999,-7.60838 9.377879,-25.08693 11.691655,-39.02193 l 1.660406,-10 8.713106,-7.27108 c 4.7922,-3.99909 13.56045,-13.15985 19.48499,-20.35724 l 10.77188,-13.08614 0.80976,10.57497 c 0.96387,12.58753 3.78751,18.21503 11.26455,22.45015 7.45949,4.22518 21.60015,4.07462 40.27764,-0.42887 47.11354,-11.35995 87.10289,-12.21237 142.3105,-3.03353 38.99266,6.48294 57.648,5.15184 74.10029,-5.28726 7.38733,-4.68732 10.18188,-10.09629 12.71609,-24.61257 1.032,-5.91144 2.08482,-10.95652 2.3396,-11.21131 0.25478,-0.25478 1.53637,2.40014 2.848,5.89983 5.15513,13.75501 13.86093,24.60668 21.22323,26.45451 2.59389,0.65102 3.33342,1.93408 4.0458,7.01926 2.0829,14.86851 9.80872,31.87915 18.88638,41.58391 5.69516,6.08858 13.05999,10.53464 14.71275,8.88189 0.43033,-0.43033 -0.77445,-5.16109 -2.67729,-10.51281 -1.94611,-5.47339 -4.33178,-16.73028 -5.45303,-25.73037 -1.70576,-13.69168 -2.75456,-17.53888 -7.26976,-26.66667 -5.91052,-11.94856 -8.06323,-14.30087 -24.02971,-26.25785 -16.29541,-12.20331 -16.46994,-12.53035 -18.27122,-34.23908 -2.47631,-29.84403 -6.60541,-35.15543 -43.16692,-55.52701 -12.07617,-6.72869 -16.75232,-10.46939 -34.02901,-27.22167 -11.01596,-10.68158 -27.06596,-25.09402 -35.66667,-32.02767 L 295.5932,119.45342 295.57,109.39337 c -0.0467,-20.258357 -5.55236,-35.840194 -16.44072,-46.529082 l -5.53613,-5.434704 0.45312,31.700938 0.45312,31.700938 -8.95479,3.80583 c -18.73482,7.96241 -29.83562,16.89768 -54.57181,43.92598 -18.11857,19.7975 -27.29012,26.99835 -47.82954,37.55237 -13.86132,7.12254 -19.30094,10.76386 -25.88007,17.32435 -16.38038,16.33396 -20.73266,34.22991 -12.33152,50.70544 l 4.00517,7.85456 -6.33851,5.21109 c -13.70348,11.26611 -35.683216,34.84447 -39.903683,42.80595 -5.245745,9.89556 -6.488919,14.95318 -9.706214,39.48798 -1.406753,10.72776 -3.46556,21.67776 -4.575128,24.33333 -2.605378,6.23555 -0.813968,6.10658 6.303219,-0.45382 z m 78.736943,-73.25216 c -8.7941,-5.36252 -13.01146,-17.47776 -15.02666,-43.16727 -1.29772,-16.54317 -2.18227,-18.79135 -8.41723,-21.39338 l -3.76614,-1.57172 9.79358,-12.66667 c 16.64999,-21.53448 32.90132,-34.76849 50.19208,-40.87309 13.42162,-4.73857 16.03949,-4.32531 23.22473,3.66641 3.35928,3.73634 8.89989,11.38634 12.31248,17 3.4126,5.61368 8.85576,14.40668 12.09592,19.54002 4.25736,6.74486 4.7928,8.04724 1.93065,4.69602 l -3.96054,-4.63732 -4.82267,2.29978 -4.82267,2.29977 2.20894,4.33755 c 3.43764,6.75026 10.98845,16.63878 13.41681,17.57062 2.92708,1.12323 8.79725,-4.41666 7.98228,-7.53316 -0.43067,-1.64688 1.0238,-0.95462 4.81816,2.2932 8.73169,7.474 17.36936,10.00687 34.1258,10.00687 17.21654,0 24.24257,-2.03166 32.6651,-9.44547 l 5.95886,-5.24518 1.86046,5.5814 1.86046,5.58138 3.07993,-4.98341 c 1.69395,-2.74088 3.54536,-7.04712 4.11423,-9.5694 1.32042,-5.85459 -1.45732,-6.21181 -7.14848,-0.91932 -2.16859,2.01667 0.40805,-1.90031 5.72585,-8.70437 5.31779,-6.80407 13.2162,-15.50407 17.55201,-19.33334 8.01784,-7.08112 23.08597,-16.96229 25.86639,-16.96229 0.84181,0 4.73277,2.25 8.64656,5 8.31264,5.84081 15.09326,15.10753 18.13988,24.79079 2.8273,8.98621 3.96557,34.09685 1.9793,43.66462 -3.41814,16.46515 -13.4495,30.56232 -25.2603,35.49855 -5.70019,2.38234 -17.16682,1.82468 -52.85275,-2.57044 -16.56777,-2.04051 -30.9181,-2.82279 -53.33333,-2.90739 -33.63434,-0.12693 -48.98432,1.26204 -80.44946,7.27964 -24.16087,4.62069 -33.82075,4.95572 -39.69023,1.3766 z m 8.50968,-10.20797 c 1.62984,-1.14159 2.96335,-2.98514 2.96335,-4.09678 0,-1.6182 0.70044,-1.47021 3.51315,0.74227 4.15081,3.26503 7.25552,3.46867 12.39149,0.81276 3.59937,-1.86132 6.54727,-6.04932 4.25805,-6.04932 -2.2009,0 -10.98632,-9.7026 -14.74586,-16.28532 l -3.873,-6.78137 -1.57712,5.857 c -0.86742,3.22133 -1.29496,8.79348 -0.9501,12.38253 0.41919,4.36263 0.22218,5.80213 -0.59438,4.34301 -0.67178,-1.20038 -1.88495,-2.18252 -2.69596,-2.18252 -0.811,0 -3.54624,-1.58014 -6.07831,-3.51145 -5.52924,-4.21736 -7.43155,-2.68456 -6.48941,5.22892 1.22008,10.24797 7.09842,14.28895 13.8781,9.54027 z m 221.45919,-2.06464 c 2.32491,-0.81047 4.87151,-2.67767 5.65912,-4.14934 2.84254,-5.31132 0.94043,-21.08744 -2.53521,-21.02725 -0.5242,0.009 -2.32825,2.13904 -4.00901,4.73327 -1.68075,2.59421 -5.71994,6.32588 -8.97596,8.2926 -6.65568,4.02017 -8.10707,6.38036 -5.70408,9.27577 3.4328,4.13628 8.99813,5.16421 15.56514,2.87495 z M 207.64424,301.9736 c 1.91208,-0.98879 4.25628,-2.73735 5.20934,-3.88569 1.4545,-1.75259 1.37685,-2.08792 -0.48356,-2.08792 -4.20058,0 -12.64827,-5.32975 -16.96836,-10.70552 l -4.33072,-5.389 -1.69161,3.04726 c -0.9304,1.67599 -1.7129,6.15371 -1.73887,9.95048 -0.0408,5.95526 0.45135,7.29543 3.58359,9.75924 3.9363,3.09631 9.55642,2.86054 16.42019,-0.68885 z m 133.46792,0.81085 c 2.88632,-2.3372 3.14771,-3.54589 3.14771,-14.55554 0,-6.60368 -0.47259,-12.47928 -1.05018,-13.05688 -0.5776,-0.5776 -5.51309,3.4224 -10.96774,8.88889 -11.8125,11.83809 -12.94702,15.42723 -5.98208,18.9248 6.05073,3.03849 10.93306,2.97233 14.85229,-0.20127 z m 22.1477,-4.06698 c 4.9131,-9.74298 3.42354,-22.97818 -1.70285,-15.13038 -1.34592,2.06043 -4.73839,6.01942 -7.5388,8.79775 -4.75509,4.71759 -6.48331,9.77908 -4.13933,12.12305 0.52378,0.52379 3.07378,0.77379 5.66666,0.55555 4.09184,-0.3444 5.11044,-1.18231 7.71432,-6.34597 z m -68.38625,1.88493 c 6.77854,-3.21663 9.23804,-11.07937 5.81543,-18.59119 -0.86396,-1.89617 -2.21396,-3.2122 -3,-2.9245 -0.78604,0.28769 -5.38767,1.82934 -10.22583,3.42588 -9.37085,3.09229 -12.49041,6.38124 -11.65549,12.28841 0.29439,2.08283 2.0804,4.01239 5.11881,5.53025 5.74248,2.86868 8.36571,2.91968 13.94708,0.27115 z m -53.55398,-2.06271 c 2.49868,-3.98718 -0.0277,-8.79161 -6.19229,-11.77582 -3.19512,-1.54674 -7.37908,-5.0185 -9.29768,-7.715 l -3.48836,-4.90276 -2.11123,5.05286 c -1.16117,2.77908 -1.92949,7.52662 -1.70737,10.55008 0.3359,4.57247 1.18126,6.01951 5.02529,8.60203 5.4398,3.6546 15.53247,3.76171 17.77164,0.18861 z m 73.47753,-0.20637 c 3.31984,-5.15475 3.89055,-12.06891 1.46797,-17.78445 l -2.21064,-5.21555 -3.89732,8.51448 c -4.46482,9.75435 -4.88924,14.1086 -1.56397,16.04539 3.36161,1.95796 4.0498,1.78493 6.20396,-1.55987 z m -48.6325,0.38429 c 1.31788,-0.7053 3.12867,-3.05088 4.02399,-5.21237 1.76643,-4.26452 0.4121,-8.47984 -3.81323,-11.86861 -3.46266,-2.77711 -11.86308,-6.96998 -13.96436,-6.96998 -2.72436,0 -9.2788,13.78054 -8.18844,17.21598 2.13606,6.73013 14.7791,10.66846 21.94204,6.83498 z m 113.77502,-34.38429 c 1.93162,-2.01666 4.46725,-5.9533 5.6347,-8.74809 l 2.12264,-5.08141 -4.58525,-4.58526 c -5.42393,-5.42393 -6.26064,-5.53936 -10.9452,-1.50988 -3.50385,3.0139 -3.53155,3.16003 -1.38532,7.31036 1.20449,2.32924 2.56149,6.94534 3.01553,10.25798 0.45406,3.31262 1.23174,6.02297 1.72819,6.02297 0.49645,0 2.48308,-1.65 4.41471,-3.66667 z m -168.30294,-1.33333 c 0.024,-2.01667 1.20508,-6.96667 2.62474,-11 l 2.58123,-7.33333 -3.62476,-2.99338 c -3.92033,-3.23748 -8.29483,-3.8122 -12.37907,-1.62638 -3.59793,1.92556 -3.31329,3.5106 2.8371,15.79869 5.66406,11.31646 7.88762,13.31478 7.96076,7.1544 z m 190.62312,-6.43627 c 0,-2.48102 -6.28864,-5.48226 -7.95022,-3.79422 -0.72674,0.73829 -0.59008,3.54214 0.34164,7.00958 l 1.55284,5.7791 3.02788,-3.52012 c 1.66532,-1.93606 3.02786,-4.39951 3.02786,-5.47434 z M 187.21491,239.73798 c -2.3524,-1.4948 -12.69986,-1.30171 -15.6788,0.29257 -6.46994,3.4626 -5.46358,12.11673 2.35867,20.28335 l 3.49345,3.64725 5.72419,-11.59635 c 4.18667,-8.48154 5.2886,-11.87313 4.10249,-12.62682 z m 172.47874,15.92868 3.98721,-8.33334 -5.54864,-5 c -3.84686,-3.46649 -6.79289,-5 -9.60552,-5 -3.70265,0 -8.9335,3.11394 -8.9335,5.31814 0,0.49765 2.30228,3.39864 5.11616,6.44662 2.81389,3.048 6.25034,7.64783 7.63654,10.22186 1.3862,2.57402 2.7094,4.68005 2.94046,4.68005 0.23104,0 2.21432,-3.75 4.40729,-8.33333 z m -202.01656,-5.10443 3.91612,-4.10443 -3.22971,-2.62864 c -4.62599,-3.76505 -9.98436,-2.86262 -10.51916,1.77156 -0.48585,4.21 1.77073,9.06594 4.21299,9.06594 0.937,0 3.46589,-1.84699 5.61976,-4.10443 z m 103.87051,11.96075 c -0.51772,-1.6312 -2.72589,-4.59576 -4.90702,-6.58794 -4.81943,-4.40186 -3.487,-5.62997 3.50154,-3.22742 7.21562,2.48061 11.19745,6.61144 9.2964,9.64424 -2.244,3.57989 -6.77781,3.67821 -7.89092,0.17112 z m 40.92895,-1.02752 c -3.70383,-2.3477 -1.12796,-7.37414 5.45136,-10.63759 7.77606,-3.85705 12.56526,-2.99839 7.1286,1.27809 -1.93412,1.52139 -4.42,4.51318 -5.52419,6.64843 -2.05864,3.98097 -3.92248,4.69712 -7.05577,2.71107 z m -61.55001,-8.8288 c -0.91292,-1.1 -1.35986,-2 -0.99319,-2 0.36667,0 1.4136,0.9 2.32652,2 0.91292,1.1 1.35985,2 0.99319,2 -0.36667,0 -1.4136,-0.9 -2.32652,-2 z m -7.56775,-18.26548 c -4.69204,-8.70207 -5.76559,-12.14068 -5.76559,-18.46747 0,-8.22836 1.78388,-12.84872 7.08178,-18.34231 l 4.25156,-4.40858 -3.33334,-2.5453 c -3.09504,-2.36333 -6.14888,-3.79574 -12.55629,-5.88959 -3.7792,-1.23499 -0.55835,-3.85211 4.56159,-3.70654 5.91754,0.16826 14.15429,5.48316 23.07644,14.89052 15.67864,16.53127 23.96038,19.89023 28.93287,11.73475 2.19428,-3.59888 2.64294,-3.8599 2.64707,-1.53999 0.003,1.53635 1.11239,3.79553 2.46588,5.02043 2.30924,2.08984 2.68945,2.04728 6.17017,-0.69066 2.04012,-1.60476 7.50079,-8.7792 12.13484,-15.9432 8.8355,-13.65923 13.11192,-17.67434 18.05258,-16.94942 4.6582,0.68349 4.29865,2.92051 -0.92122,5.73159 -4.45414,2.39872 -4.61672,2.70029 -2.34185,4.34398 5.89228,4.25743 14.22572,13.34459 16.71823,18.23031 3.55989,6.97796 3.563,15.87754 0.008,23.85237 l -2.8477,6.38873 -6.3838,-0.75653 c -3.51109,-0.41609 -9.9838,-1.33649 -14.3838,-2.04533 -14.18885,-2.28583 -42.16473,-1.59366 -57.12389,1.41334 -7.44852,1.49727 -14.56157,3.0278 -15.80678,3.40119 -1.56535,0.46939 -2.99632,-0.67931 -4.63707,-3.72229 z m 3.57217,-3.94002 c -5.31482,-7.3369 -7.06284,-14.11077 -5.47032,-21.19853 0.8854,-3.94064 0.83796,-5.16804 -0.16114,-4.16893 -0.7788,0.7788 -1.70012,4.37296 -2.04739,7.98702 -0.79185,8.24096 5.099,22.91927 9.19821,22.91927 2.1912,0 2.00731,-0.6704 -1.51936,-5.53883 z m 21.47671,-0.31296 c 8.10461,-1.36558 8.84781,-1.74984 7.6218,-3.94058 -0.74716,-1.33511 -0.99257,-4.37787 -0.54536,-6.76168 0.69359,-3.69714 0.33679,-4.55126 -2.42733,-5.81067 -1.78223,-0.81204 -7.23494,-4.86508 -12.11711,-9.00676 -8.53915,-7.24397 -8.97404,-7.4422 -11.43743,-5.21288 -2.79918,2.53324 -5.22324,9.78028 -5.23493,15.65057 -0.0155,7.7537 7.95155,18.88303 12.48704,17.44351 1.47017,-0.46661 6.71416,-1.52929 11.65332,-2.36151 z m 74.85013,-2.22761 c 4.93528,-9.71127 1.65267,-22.07697 -8.46784,-31.8986 -10.58309,-10.27053 -14.62507,-10.32937 -4.65755,-0.0677 10.93295,11.25546 14.02986,21.98281 9.4859,32.85804 -2.61888,6.26785 0.37358,5.53473 3.63949,-0.89164 z m -6.84839,-0.25393 c 2.68948,-6.45171 1.91567,-15.0986 -1.8603,-20.78763 -3.98527,-6.00436 -10.96319,-13.55567 -12.49086,-13.51724 -0.62244,0.0156 -2.92405,2.56565 -5.11469,5.66667 -2.19064,3.10101 -5.97987,7.85434 -8.42052,10.56296 -3.86011,4.28394 -4.23524,5.30274 -2.88293,7.82956 0.85504,1.59764 1.21732,4.5912 0.80509,6.65236 -0.73651,3.68253 -0.61733,3.76349 6.86591,4.66486 4.18848,0.50451 10.01542,1.37906 12.94876,1.94346 2.93333,0.56438 6.01054,1.09189 6.83824,1.17224 0.82769,0.0804 2.31778,-1.80391 3.3113,-4.18724 z m -40.90432,-4.66667 c -1.73808,-9.92489 -8.67646,-10.32545 -9.1516,-0.52833 l -0.2681,5.52833 h 5.14765 5.14767 z M 177.26117,191.11087 c 5.14794,-3.42234 14.75401,-11.67234 21.34679,-18.33333 l 11.98691,-12.11088 -5.46861,-0.40843 c -6.04991,-0.45182 -16.48596,4.62723 -18.94373,9.21963 -1.39982,2.61556 -3.92266,3.44592 -3.92266,1.29111 0,-0.67708 1.49164,-3.00375 3.31475,-5.17039 l 3.31475,-3.93936 -4.14808,-0.82961 c -2.28144,-0.45628 -6.09559,-0.82962 -8.47586,-0.82962 -4.29913,0 -4.33376,-0.0528 -5.23113,-7.9846 -0.49685,-4.39153 -1.71283,-10.24153 -2.70217,-13 l -1.7988,-5.0154 -2.09992,4.66667 c -2.42746,5.39455 -7.04426,11.5924 -7.93082,10.64675 -0.33346,-0.35571 -4.02733,-7.24675 -8.20858,-15.31342 C 132.57182,103.66801 114.91965,81.075392 98.320943,70.040593 88.376045,63.429237 76.361076,58.666665 69.626913,58.666665 c -4.181384,0 -4.122413,0.09524 7.286701,11.76805 8.926005,9.132312 12.754821,14.296677 17.094904,23.057865 5.38442,10.86935 5.816008,11.34954 11.588692,12.8935 3.2978,0.88202 5.996,2.18069 5.996,2.88593 0,0.70523 -2.71884,2.87559 -6.04185,4.823 -4.19673,2.45945 -5.844434,4.20716 -5.39541,5.72288 4.00901,13.53261 7.53208,49.30548 6.49084,65.90732 l -0.68623,10.94145 4.10129,-4.66667 c 2.25571,-2.56666 6.57094,-9.35033 9.5894,-15.07481 7.0818,-13.43052 11.83349,-18.73777 18.5882,-20.76153 5.28825,-1.5844 5.59365,-1.49944 10.88252,3.02762 2.99286,2.56179 8.19841,5.95366 11.56788,7.5375 l 6.12629,2.87969 -3.27813,1.81333 c -1.80298,0.99734 -6.75064,2.51792 -10.99482,3.37908 -4.24416,0.86116 -7.51218,2.17919 -7.26226,2.92894 0.65304,1.95912 9.11804,6.27018 12.31185,6.27018 2.04481,0 3.2876,1.63236 5.07563,6.66667 1.30229,3.66666 3.01242,6.66666 3.80032,6.66666 0.78789,0 5.64448,-2.8001 10.79244,-6.22245 z"
     style="fill:#aa0000;stroke-width:1.33333325" />
</svg>
